<svg xmlns="http://www.w3.org/2000/svg" viewBox="0 0 24 24" fill="white"><path d="M12 0C5.373 0 0 5.373 0 12s5.373 12 12 12 12-5.373 12-12S18.627 0 12 0zm4.14 16.05c-.6.75-1.35 1.2-2.1 1.2-.9 0-1.35-.6-1.35-1.5 0-2.1 1.95-5.4 1.95-6.75 0-.45-.15-.75-.6-.75-1.35 0-3.15 2.7-3.75 4.95-.15.6-.3 1.05-.45 1.65-.15.45-.45.6-.9.6-.45 0-.9-.3-.9-.75 0-.15 0-.3.075-.525C9.15 11.1 11.4 4.5 14.25 4.5c.9 0 1.5.6 1.5 1.5 0 1.65-2.1 5.25-2.1 6.6 0 .3.15.45.45.45.6 0 1.35-.75 1.8-1.35.15-.15.3-.3.45-.3.3 0 .45.3.45.45 0 .15-.15.6-.66 1.2z"/></svg>
