<svg xmlns="http://www.w3.org/2000/svg" viewBox="0 0 64 64" fill="none" stroke="#5CB87A" stroke-width="3" stroke-linecap="round" stroke-linejoin="round"><circle cx="24" cy="24" r="8"/><circle cx="24" cy="24" r="3"/><path d="M24 13v-3M24 34v3M13 24h-3M34 24h3M16.3 16.3l-2-2M31.7 31.7l2 2M16.3 31.7l-2 2M31.7 16.3l2-2"/><circle cx="44" cy="44" r="6"/><circle cx="44" cy="44" r="2.5"/><path d="M44 36v-2M44 52v2M36 44h-2M52 44h2M38.2 38.2l-1.4-1.4M49.8 49.8l1.4 1.4M38.2 49.8l-1.4 1.4M49.8 38.2l1.4-1.4"/><line x1="30" y1="30" x2="38" y2="38"/></svg>
